<svg width="1000" height="310" viewBox="0 0 1000 310" fill="none" xmlns="http://www.w3.org/2000/svg">
<rect width="1000" height="310" fill="#F5F5F5"/>
<g clip-path="url(#clip0_0_1)">
<rect width="1000" height="35" fill="#F4D35E"/>
<rect y="274" width="1000" height="35" fill="#F4D35E"/>
<rect width="35" height="100" fill="#F4D35E"/>
<rect y="209" width="35" height="100" fill="#F4D35E"/>
<rect x="965" y="209" width="35" height="100" fill="#F4D35E"/>
<rect x="965" width="35" height="100" fill="#F4D35E"/>
<path d="M132.508 191.2C126.348 191.2 119.708 190.72 112.588 189.76V181.48C121.948 183 128.668 183.76 132.748 183.76C137.868 183.76 141.548 183.28 143.788 182.32C146.028 181.28 147.148 179.4 147.148 176.68V170.8C147.148 168.32 146.308 166.56 144.628 165.52C142.948 164.48 140.228 163.96 136.468 163.96H129.868C123.868 163.96 119.268 162.72 116.068 160.24C112.948 157.76 111.388 154.28 111.388 149.8V144.4C111.388 135.28 120.028 130.72 137.308 130.72C138.588 130.72 144.468 131.04 154.948 131.68V139.48C147.828 138.36 141.788 137.8 136.828 137.8C131.148 137.8 127.268 138.36 125.188 139.48C123.108 140.6 122.068 142.48 122.068 145.12V150.04C122.068 153.96 125.628 155.92 132.748 155.92H139.468C151.708 155.92 157.828 160.48 157.828 169.6V174.64C157.828 180.64 155.748 184.92 151.588 187.48C147.428 189.96 141.068 191.2 132.508 191.2ZM206.955 106H217.755V139C218.875 133.48 225.235 130.72 236.835 130.72C244.275 130.72 249.475 132.08 252.435 134.8C255.475 137.44 256.995 141.64 256.995 147.4V190H246.195V148.12C246.195 146.6 246.075 145.36 245.835 144.4C245.595 143.44 245.115 142.48 244.395 141.52C242.795 139.52 239.235 138.52 233.715 138.52C229.315 138.52 225.955 138.84 223.635 139.48C221.395 140.04 219.835 141 218.955 142.36C218.155 143.72 217.755 145.64 217.755 148.12V190H206.955V106ZM330.104 191.2C322.664 191.2 317.424 189.88 314.384 187.24C311.424 184.52 309.944 180.28 309.944 174.52V131.92H320.744V173.92C320.744 175.44 320.864 176.68 321.104 177.64C321.424 178.52 321.944 179.44 322.664 180.4C324.104 182.48 327.624 183.52 333.224 183.52C339.144 183.52 343.304 182.96 345.704 181.84C348.024 180.72 349.184 178.68 349.184 175.72V131.92H359.984V190H349.184V182.92C348.144 188.44 341.784 191.2 330.104 191.2ZM412.933 106H423.733V190H412.933V106ZM425.053 158.2L449.533 131.92H462.733L437.533 158.2L465.013 190H451.573L425.053 158.2ZM533.254 191.2C515.494 191.2 506.614 185.28 506.614 173.44V150.52C506.614 143.48 508.614 138.44 512.614 135.4C516.694 132.28 523.254 130.72 532.294 130.72C540.854 130.72 547.014 132.2 550.774 135.16C554.614 138.12 556.534 143.24 556.534 150.52V163.36H517.534V172.12C517.534 176.12 518.934 179 521.734 180.76C524.534 182.52 528.854 183.4 534.694 183.4C540.214 183.4 546.734 182.44 554.254 180.52V188.8C546.894 190.4 539.894 191.2 533.254 191.2ZM545.734 156.28V147.16C545.734 143.64 544.654 141.24 542.494 139.96C540.414 138.6 536.814 137.92 531.694 137.92C526.734 137.92 523.134 138.6 520.894 139.96C518.654 141.24 517.534 143.64 517.534 147.16V156.28H545.734ZM607.193 131.92H617.393V141.4C617.393 139.56 618.193 137.84 619.793 136.24C621.393 134.56 623.433 133.24 625.913 132.28C628.393 131.24 630.833 130.72 633.233 130.72H638.513V139.96H632.513C627.393 139.96 623.673 140.64 621.353 142C619.113 143.28 617.993 145.64 617.993 149.08V190H607.193V131.92ZM701.223 191.2C695.063 191.2 688.423 190.72 681.303 189.76V181.48C690.663 183 697.383 183.76 701.463 183.76C706.583 183.76 710.263 183.28 712.503 182.32C714.743 181.28 715.863 179.4 715.863 176.68V170.8C715.863 168.32 715.023 166.56 713.343 165.52C711.663 164.48 708.943 163.96 705.183 163.96H698.583C692.583 163.96 687.983 162.72 684.783 160.24C681.663 157.76 680.103 154.28 680.103 149.8V144.4C680.103 135.28 688.743 130.72 706.023 130.72C707.303 130.72 713.183 131.04 723.663 131.68V139.48C716.543 138.36 710.503 137.8 705.543 137.8C699.863 137.8 695.983 138.36 693.903 139.48C691.823 140.6 690.783 142.48 690.783 145.12V150.04C690.783 153.96 694.343 155.92 701.463 155.92H708.183C720.423 155.92 726.543 160.48 726.543 169.6V174.64C726.543 180.64 724.463 184.92 720.303 187.48C716.143 189.96 709.783 191.2 701.223 191.2ZM793.551 191.2C788.031 191.2 783.751 190.68 780.711 189.64C777.751 188.6 775.591 186.76 774.231 184.12C772.951 181.48 772.311 177.68 772.311 172.72C772.311 168.32 772.911 164.92 774.111 162.52C775.391 160.04 777.511 158.28 780.471 157.24C783.511 156.2 787.791 155.68 793.311 155.68H810.711V146.44C810.711 144.28 810.271 142.64 809.391 141.52C808.591 140.32 807.191 139.48 805.191 139C803.271 138.52 800.431 138.28 796.671 138.28C790.671 138.28 784.031 138.76 776.751 139.72V131.8C784.671 131.08 791.831 130.72 798.231 130.72C804.951 130.72 809.911 131.24 813.111 132.28C816.311 133.24 818.511 134.96 819.711 137.44C820.911 139.92 821.511 143.76 821.511 148.96V190H811.071V184.48C810.191 188.96 804.351 191.2 793.551 191.2ZM795.351 184.12C799.271 184.12 802.591 183.84 805.311 183.28C808.911 182.56 810.711 180.88 810.711 178.24V162.4H794.031C790.591 162.4 788.111 162.68 786.591 163.24C785.071 163.72 784.071 164.68 783.591 166.12C783.111 167.56 782.871 169.88 782.871 173.08C782.871 175.96 783.151 178.2 783.711 179.8C784.271 181.32 785.271 182.44 786.711 183.16C788.151 183.8 790.311 184.12 793.191 184.12H795.351ZM874.441 106H885.241V190H874.441V106Z" fill="black"/>
</g>
<defs>
<clipPath id="clip0_0_1">
<rect width="1000" height="309.017" fill="white"/>
</clipPath>
</defs>
</svg>
